#!OML:ASF H:\ManfredETheater\Project 1\Capture day 1\Session 1\subject.ASF
:FULLY-SPECIFIED
:DEGREES
110
root -0.876177 21.4341 1.52092 7.40008 0.850182 5.2458
lowerback 14.6975 -1.7108 -6.09438
upperback -1.13377 -3.4788 -1.2719
thorax -9.22209 -1.39935 2.84072
lowerneck -21.2972 -0.645744 -2.07744
upperneck 13.6205 -0.548783 1.57436
head 7.6865 -0.212435 0.791359
rclavicle 1.60519e-014 -1.07344e-014
rhumerus -74.9556 6.60277 -91.4372
rradius 89.6106
rwrist -10.2199
rhand -23.1244 11.8762
rfingers 7.12502
rthumb 3.32293 -18.0777
lclavicle 1.60519e-014 -1.07344e-014
lhumerus -33.3547 -18.2062 101.371
lradius 122.811
lwrist 15.166
lhand -20.5244 -16.7699
lfingers 7.12502
lthumb 5.83352 13.1298
rfemur -51.53 -10.8963 16.6625
rtibia 71.2135
rfoot -12.7411 -6.72679
rtoes -27.0839
lfemur -18.0868 -3.36627 -30.9021
ltibia 46.7335
lfoot -27.1425 -2.63472
ltoes -1.7239
111
root -0.895869 21.5091 1.98625 7.73135 0.746055 5.14356
lowerback 14.3615 -1.99125 -5.98193
upperback -1.24372 -3.8008 -1.14991
thorax -9.11936 -1.5589 2.96263
lowerneck -21.3581 -0.326758 -1.83785
upperneck 13.7105 -0.145602 1.34923
head 7.71835 -0.0307557 0.728583
rclavicle 6.06293e-015 1.82882e-014
rhumerus -76.275 7.0994 -91.4972
rradius 91.1318
rwrist -10.1006
rhand -22.8481 12.1677
rfingers 7.12502
rthumb 3.58982 -17.7818
lclavicle 6.06293e-015 1.82882e-014
lhumerus -33.0165 -18.1721 101.374
lradius 124.794
lwrist 16.5425
lhand -20.5492 -16.7663
lfingers 7.12502
lthumb 5.80959 13.134
rfemur -51.8992 -10.5214 16.9934
rtibia 67.4788
rfoot -12.9903 -6.03232
rtoes -28.5097
lfemur -15.7942 -3.26845 -30.8413
ltibia 44.9363
lfoot -26.3957 -2.15381
ltoes -3.47136
112
root -0.915889 21.589 2.45513 8.05037 0.621938 5.07585
lowerback 14.0072 -2.25289 -5.88325
upperback -1.34456 -4.10033 -1.03611
thorax -8.9973 -1.70855 3.07424
lowerneck -21.3883 -0.0274319 -1.63263
upperneck 13.7999 0.241101 1.12272
head 7.74715 0.140787 0.668923
rclavicle 2.16178e-014 1.8487e-014
rhumerus -77.4945 7.48511 -91.5321
rradius 92.6127
rwrist -10.076
rhand -22.5874 12.4074
rfingers 7.12502
rthumb 3.84159 -17.5377
lclavicle 2.16178e-014 1.8487e-014
lhumerus -32.8823 -18.3729 101.348
lradius 126.632
lwrist 18.0038
lhand -20.4843 -16.7555
lfingers 7.12502
lthumb 5.8723 13.1432
rfemur -51.9936 -10.1896 17.2802
rtibia 63.5288
rfoot -12.9824 -5.29807
rtoes -30.1288
lfemur -13.5698 -3.10441 -30.8226
ltibia 43.2006
lfoot -25.2257 -1.81897
ltoes -5.47727
113
root -0.937145 21.6729 2.92715 8.35203 0.482733 5.07797
lowerback 13.6421 -2.48679 -5.83799
upperback -1.43286 -4.37349 -0.942976
thorax -8.85507 -1.84486 3.18392
lowerneck -21.3913 0.24342 -1.46821
upperneck 13.8861 0.60091 0.898557
head 7.77236 0.297335 0.613251
rclavicle 5.56597e-015 3.77691e-015
rhumerus -78.6039 7.73052 -91.5347
rradius 94.0295
rwrist -10.1437
rhand -22.3671 12.5875
rfingers 7.12502
rthumb 4.05429 -17.3536
lclavicle 5.56597e-015 3.77691e-015
lhumerus -32.9343 -18.8069 101.298
lradius 128.256
lwrist 19.3001
lhand -20.3104 -16.7492
lfingers 7.12502
lthumb 6.04016 13.1447
rfemur -51.8381 -9.91243 17.4941
rtibia 59.4354
rfoot -12.6458 -4.555
rtoes -31.9067
lfemur -11.4536 -2.86455 -30.8626
ltibia 41.588
lfoot -23.6378 -1.72467
ltoes -7.61461
114
root -0.960602 21.7595 3.40181 8.6299 0.342787 5.17369
lowerback 13.2766 -2.68807 -5.87057
upperback -1.50931 -4.61876 -0.880713
thorax -8.69852 -1.96587 3.295
lowerneck -21.3657 0.476875 -1.34271
upperneck 13.9718 0.921828 0.673816
head 7.79441 0.433025 0.558707
rclavicle -3.37685e-014 -1.15295e-014
rhumerus -79.6004 7.80651 -91.4993
rradius 95.367
rwrist -10.2723
rhand -22.1951 12.7023
rfingers 7.12502
rthumb 4.22033 -17.2356
lclavicle -3.37685e-014 -1.15295e-014
lhumerus -33.1809 -19.4511 101.25
lradius 129.615
lwrist 20.2204
lhand -20.014 -16.7474
lfingers 7.12502
lthumb 6.32631 13.1381
rfemur -51.4765 -9.7003 17.6166
rtibia 55.3367
rfoot -11.9921 -3.84887
rtoes -33.7066
lfemur -9.51029 -2.55472 -30.9614
ltibia 40.2228
lfoot -21.6908 -1.91268
ltoes -9.82199
115
root -0.987165 21.8465 3.87838 8.89394 0.213104 5.36829
lowerback 12.9097 -2.85703 -5.99319
upperback -1.57881 -4.83769 -0.850909
thorax -8.5311 -2.07161 3.41335
lowerneck -21.3235 0.670422 -1.25056
upperneck 14.0666 1.19957 0.445687
head 7.8182 0.545826 0.502954
rclavicle -8.19987e-015 -1.23246e-014
rhumerus -80.4777 7.70935 -91.4258
rradius 96.6049
rwrist -10.4248
rhand -22.0804 12.7691
rfingers 7.12502
rthumb 4.33109 -17.1666
lclavicle -8.19987e-015 -1.23246e-014
lhumerus -33.61 -20.2573 101.227
lradius 130.664
lwrist 20.6075
lhand -19.5977 -16.7658
lfingers 7.12502
lthumb 6.72819 13.1073
rfemur -50.9474 -9.54291 17.6424
rtibia 51.3094
rfoot -11.0495 -3.23167
rtoes -35.3949
lfemur -7.76238 -2.18508 -31.0987
ltibia 39.0809
lfoot -19.3496 -2.42347
ltoes -11.9234
116
root -1.01838 21.9115 4.35525 9.15183 0.0955333 5.66422
lowerback 12.537 -2.99131 -6.21201
upperback -1.64549 -5.02699 -0.856673
thorax -8.35466 -2.16018 3.53873
lowerneck -21.2737 0.825871 -1.18458
upperneck 14.1807 1.43409 0.217153
head 7.84837 0.636353 0.445901
rclavicle -6.31638e-014 7.55382e-015
rhumerus -81.2322 7.43673 -91.3135
rradius 97.7283
rwrist -10.5574
rhand -22.0238 12.8005
rfingers 7.12502
rthumb 4.38577 -17.1341
lclavicle -6.31638e-014 7.55382e-015
lhumerus -34.2209 -21.1742 101.254
lradius 131.374
lwrist 20.3912
lhand -19.1165 -16.8205
lfingers 7.12502
lthumb 7.19268 13.0373
rfemur -50.3896 -9.42522 17.5728
rtibia 47.5389
rfoot -9.8921 -2.76799
rtoes -36.8017
lfemur -6.26852 -1.77855 -31.2656
ltibia 38.24
lfoot -16.6315 -3.21884
ltoes -13.7404
117
root -1.05191 21.9903 4.83377 9.41552 -0.0059376 6.0481
lowerback 12.154 -3.09533 -6.51728
upperback -1.71695 -5.18931 -0.893223
thorax -8.17484 -2.23291 3.67166
lowerneck -21.2242 0.944409 -1.138
upperneck 14.3239 1.62532 -0.0120997
head 7.88932 0.70478 0.38642
rclavicle -5.71506e-015 1.47101e-014
rhumerus -81.8623 7.01321 -91.1694
rradius 98.7265
rwrist -10.6335
rhand -22.0269 12.8129
rfingers 7.12502
rthumb 4.38284 -17.1218
lclavicle -5.71506e-015 1.47101e-014
lhumerus -35.0008 -22.1334 101.343
lradius 131.731
lwrist 19.5759
lhand -18.6472 -16.9278
lfingers 7.12502
lthumb 7.64566 12.914
rfemur -49.6974 -9.34432 17.4063
rtibia 44.062
rfoot -8.69998 -2.52491
rtoes -37.8641
lfemur -5.01316 -1.36792 -31.4371
ltibia 37.616
lfoot -13.4662 -4.2258
ltoes -15.1317
